<svg id="Layer_1" data-name="Layer 1" xmlns="http://www.w3.org/2000/svg" viewBox="0 0 46.45 79.28"><defs><style>.cls-1{fill:#b2b2b2;stroke:#fdffff;stroke-linecap:round;stroke-miterlimit:10;stroke-width:0.5px;}</style></defs><title>diamond</title><path class="cls-1" d="M15.86,64.81l7.2,12.59,7.31-12.58H15.86"/><path class="cls-1" d="M30.37,64.82l-7.2-12.59L15.86,64.81H30.37"/><path class="cls-1" d="M23.17,52.23l7.2,12.59,7.31-12.58H23.17"/><path class="cls-1" d="M37.68,52.24l-7.2-12.6L23.17,52.23H37.68"/><path class="cls-1" d="M30.48,39.64l7.2,12.6L45,39.66l-14.5,0"/><path class="cls-1" d="M45,39.66q-3.58-6.3-7.19-12.6L30.48,39.64l14.5,0"/><path class="cls-1" d="M8.66,52.21l7.2,12.6,7.31-12.58-14.51,0"/><path class="cls-1" d="M23.17,52.23,16,39.63,8.66,52.21l14.51,0"/><path class="cls-1" d="M16,39.63l7.2,12.6,7.31-12.59H16"/><path class="cls-1" d="M30.48,39.64l-7.2-12.59L16,39.63H30.48"/><path class="cls-1" d="M23.28,27.05l7.2,12.59,7.31-12.58H23.28"/><path class="cls-1" d="M37.79,27.06l-7.2-12.59L23.28,27.05H37.79"/><path class="cls-1" d="M1.47,39.62,8.66,52.21,16,39.63H1.47"/><path class="cls-1" d="M16,39.63Q12.37,33.33,8.78,27L1.47,39.62H16"/><path class="cls-1" d="M8.78,27q3.59,6.3,7.19,12.59l7.31-12.58H8.78"/><path class="cls-1" d="M23.28,27.05l-7.2-12.59L8.78,27h14.5"/><path class="cls-1" d="M16.08,14.46l7.2,12.59,7.31-12.58H16.08"/><path class="cls-1" d="M30.59,14.47l-7.2-12.6L16.08,14.46H30.59"/></svg>