<svg id="Layer_1" data-name="Layer 1" xmlns="http://www.w3.org/2000/svg" viewBox="0 0 69.89 40.19"><defs><style>.cls-1{fill:#b2b2b2;stroke:#fdffff;stroke-linecap:round;stroke-miterlimit:10;stroke-width:0.5px;}</style></defs><title>rhombus</title><path class="cls-1" d="M9.44,26.2,2.09,38.7l14.55.1L9.44,26.2"/><path class="cls-1" d="M16.64,38.8,24,26.3,9.44,26.2l7.2,12.6"/><path class="cls-1" d="M24,26.3,16.64,38.8l14.55.09L24,26.3"/><path class="cls-1" d="M31.19,38.89l7.35-12.5L24,26.3l7.2,12.59"/><path class="cls-1" d="M38.54,26.39l-7.35,12.5,14.55.1-7.2-12.6"/><path class="cls-1" d="M45.74,39l7.35-12.5-14.55-.1L45.74,39"/><path class="cls-1" d="M16.8,13.7,9.44,26.2,24,26.3,16.8,13.7"/><path class="cls-1" d="M24,26.3l7.36-12.5L16.8,13.7,24,26.3"/><path class="cls-1" d="M31.35,13.8,24,26.3l14.55.09Q35,20.09,31.35,13.8"/><path class="cls-1" d="M38.54,26.39l7.36-12.5L31.35,13.8q3.6,6.28,7.19,12.59"/><path class="cls-1" d="M45.9,13.89l-7.36,12.5,14.55.1q-3.59-6.3-7.19-12.6"/><path class="cls-1" d="M53.09,26.49,60.45,14l-14.55-.1,7.19,12.6"/><path class="cls-1" d="M24.16,1.2,16.8,13.7l14.55.1q-3.6-6.3-7.19-12.6"/><path class="cls-1" d="M31.35,13.8Q35,7.55,38.71,1.29L24.16,1.2q3.59,6.3,7.19,12.6"/><path class="cls-1" d="M38.71,1.29Q35,7.55,31.35,13.8l14.55.09q-3.6-6.3-7.19-12.6"/><path class="cls-1" d="M45.9,13.89l7.36-12.5-14.55-.1q3.59,6.3,7.19,12.6"/><path class="cls-1" d="M53.26,1.39,45.9,13.89l14.55.1q-3.6-6.3-7.19-12.6"/><path class="cls-1" d="M60.45,14q3.67-6.25,7.36-12.51L53.26,1.39q3.59,6.3,7.19,12.6"/></svg>